P2
# 16x16 block center left
16 16
255
0 0 0 0 0 0 0 0 0 0 0 0 0 0 0 0
0 0 0 0 0 0 0 0 0 0 0 0 0 0 0 0
0 0 0 0 0 0 0 0 0 0 0 0 0 0 0 0
0 0 0 0 255 255 255 255 255 255 0 0 0 0 0 0
0 0 0 0 255 255 255 255 255 255 0 0 0 0 0 0
0 0 0 0 255 255 255 255 255 255 0 0 0 0 0 0
0 0 0 0 255 255 255 255 255 255 0 0 0 0 0 0
0 0 0 0 255 255 255 255 255 255 0 0 0 0 0 0
0 0 0 0 255 255 255 255 255 255 0 0 0 0 0 0
0 0 0 0 255 255 255 255 255 255 0 0 0 0 0 0
0 0 0 0 0 0 0 0 0 0 0 0 0 0 0 0
0 0 0 0 0 0 0 0 0 0 0 0 0 0 0 0
0 0 0 0 0 0 0 0 0 0 0 0 0 0 0 0
0 0 0 0 0 0 0 0 0 0 0 0 0 0 0 0
0 0 0 0 0 0 0 0 0 0 0 0 0 0 0 0
0 0 0 0 0 0 0 0 0 0 0 0 0 0 0 0
