P2
# 16x16 block center shifted right
16 16
255
0 0 0 0 0 0 0 0 0 0 0 0 0 0 0 0
0 0 0 0 0 0 0 0 0 0 0 0 0 0 0 0
0 0 0 0 0 0 0 0 0 0 0 0 0 0 0 0
0 0 0 0 0 255 255 255 255 255 255 0 0 0 0 0
0 0 0 0 0 255 255 255 255 255 255 0 0 0 0 0
0 0 0 0 0 255 255 255 255 255 255 0 0 0 0 0
0 0 0 0 0 255 255 255 255 255 255 0 0 0 0 0
0 0 0 0 0 255 255 255 255 255 255 0 0 0 0 0
0 0 0 0 0 255 255 255 255 255 255 0 0 0 0 0
0 0 0 0 0 255 255 255 255 255 255 0 0 0 0 0
0 0 0 0 0 0 0 0 0 0 0 0 0 0 0 0
0 0 0 0 0 0 0 0 0 0 0 0 0 0 0 0
0 0 0 0 0 0 0 0 0 0 0 0 0 0 0 0
0 0 0 0 0 0 0 0 0 0 0 0 0 0 0 0
0 0 0 0 0 0 0 0 0 0 0 0 0 0 0 0
0 0 0 0 0 0 0 0 0 0 0 0 0 0 0 0
